<?xml version="1.0" encoding="UTF-8" standalone="no"?>
<!-- Created with Inkscape (http://www.inkscape.org/) -->

<svg
   width="500"
   height="500"
   viewBox="0 0 781.25 781.25"
   version="1.1"
   id="svg8"
   inkscape:version="1.4 (86a8ad7, 2024-10-11)"
   sodipodi:docname="rwd-logo.svg"
   xmlns:inkscape="http://www.inkscape.org/namespaces/inkscape"
   xmlns:sodipodi="http://sodipodi.sourceforge.net/DTD/sodipodi-0.dtd"
   xmlns="http://www.w3.org/2000/svg"
   xmlns:svg="http://www.w3.org/2000/svg"
   xmlns:rdf="http://www.w3.org/1999/02/22-rdf-syntax-ns#"
   xmlns:cc="http://creativecommons.org/ns#"
   xmlns:dc="http://purl.org/dc/elements/1.1/">
  <defs
     id="defs2">
    <linearGradient
       id="linearGradient4531"
       inkscape:swatch="solid">
      <stop
         style="stop-color:#000000;stop-opacity:1;"
         offset="0"
         id="stop4529" />
    </linearGradient>
  </defs>
  <sodipodi:namedview
     id="base"
     pagecolor="#ffffff"
     bordercolor="#666666"
     borderopacity="1.0"
     inkscape:pageopacity="0.0"
     inkscape:pageshadow="2"
     inkscape:zoom="1.4"
     inkscape:cx="250.35714"
     inkscape:cy="236.78571"
     inkscape:document-units="px"
     inkscape:current-layer="layer6"
     showgrid="false"
     inkscape:object-nodes="false"
     inkscape:snap-smooth-nodes="true"
     units="cm"
     inkscape:window-width="1920"
     inkscape:window-height="1017"
     inkscape:window-x="-8"
     inkscape:window-y="-8"
     inkscape:window-maximized="1"
     inkscape:showpageshadow="2"
     inkscape:pagecheckerboard="0"
     inkscape:deskcolor="#d1d1d1" />
  <metadata
     id="metadata5">
    <rdf:RDF>
      <cc:Work
         rdf:about="">
        <dc:format>image/svg+xml</dc:format>
        <dc:type
           rdf:resource="http://purl.org/dc/dcmitype/StillImage" />
      </cc:Work>
    </rdf:RDF>
  </metadata>
  <g
     inkscape:groupmode="layer"
     id="layer4"
     inkscape:label="Layer 4"
     style="display:none"
     transform="translate(0,-50)" />
  <g
     inkscape:groupmode="layer"
     id="layer6"
     inkscape:label="Layer 5"
     style="display:inline"
     transform="translate(0,-50)">
    <path
       style="display:inline;fill:#000000;fill-opacity:1;fill-rule:evenodd;stroke-width:1.97767"
       d="m 58.51235,50.045465 c -24.829623,0 -58.44257713,20.871427 -58.44257713,46.794349 V 608.35211 c 0,25.92294 28.86960313,46.79438 53.69924413,46.79438 h 80.702693 v 141.85327 c 0,24.92583 27.32937,35.0861 40.72952,35.0861 h 9.48664 349.41346 9.48667 c 13.40012,0 32.45932,-10.16023 32.45932,-35.0861 v -55.94978 h 60.15153 c 12.76951,0 31.31981,-16.70421 31.31981,-27.06234 v -58.84115 h 65.50168 c 24.82966,0 48.95126,-20.87144 48.95126,-46.79438 V 96.839814 c 0,-25.922922 -24.1216,-46.794349 -48.95126,-46.794349 z m 49.10557,65.249015 H 676.4616 c 21.23871,0 38.3358,16.25084 38.3358,36.43538 v 382.86167 c 0,20.18452 -17.09709,36.43052 -38.3358,36.43052 h -14.56639 v -80.82617 c 0,-10.35808 -18.55026,-27.0623 -31.31984,-27.0623 H 574.8308 V 314.30113 c 0,-24.92597 -27.32935,-43.45683 -40.72947,-43.45683 h -358.9001 c -13.40015,0 -41.53209,18.54408 -40.72952,43.45683 v 256.72092 h -26.85379 c -21.238691,0 -38.34042,-16.246 -38.34042,-36.43052 V 151.72986 c 0,-20.18454 17.101729,-36.43538 38.34042,-36.43538 z m 107.08176,214.77725 h 279.90317 c 10.45063,0 18.8668,6.53609 18.8668,26.95657 V 463.13358 H 279.07751 c -12.76955,-4e-5 -31.31981,16.70422 -31.31981,27.0623 v 216.2764 c 0,10.35809 18.55026,32.01936 31.31981,32.01936 h 234.39214 v 13.28549 c -2.52357,14.53933 -9.53274,20.01193 -17.84777,20.01193 H 215.71876 c -10.45065,0 -18.86678,-6.53605 -18.86678,-26.95661 0.15,-124.00736 -1.07508,-275.55829 -1.01446,-387.80415 0,-20.42048 8.41155,-26.95657 18.86219,-26.95657 z m 112.81634,183.34236 263.82686,0.28599 c 0,0 26.32495,-4.70785 26.61348,22.13451 1.42042,41.30034 -0.50099,103.43323 0.55909,125.70703 -0.0164,21.08236 -23.42878,20.40799 -23.42878,20.40799 l -277.05737,1.30428 c -11.27741,0.0532 -20.35373,-6.0575 -20.35373,-13.57986 V 526.99375 c 0,-7.52237 4.33286,-13.57986 15.6104,-13.57986 z"
       id="rect9966-6-4"
       inkscape:connector-curvature="0"
       sodipodi:nodetypes="sssscssccsscsscsssssssssscsscsssscsssssssccsssccssccscccccssssc" />
  </g>
  <g
     inkscape:label="Layer 1"
     inkscape:groupmode="layer"
     id="layer1"
     transform="translate(0,-247)"
     style="display:none"
     sodipodi:insensitive="true">
    <g
       aria-label="A"
       transform="matrix(2.0309415,0,0,2.1577634,-839.20169,-449.57668)"
       style="font-style:normal;font-weight:normal;font-size:40px;line-height:1.25;font-family:sans-serif;letter-spacing:0px;word-spacing:0px;fill:#000000;fill-opacity:1;stroke:none"
       id="flowRoot3694" />
    <rect
       style="fill:#000000;fill-opacity:1;fill-rule:evenodd;stroke-width:0.264583"
       id="rect9966"
       width="84.189903"
       height="62.541069"
       x="6.4144688"
       y="204.25748"
       rx="4.99999"
       ry="4.99999" />
    <rect
       style="fill:#ffffff;fill-opacity:1;fill-rule:evenodd;stroke-width:0.215928"
       id="rect9966-6"
       width="72.014076"
       height="48.696781"
       x="12.502382"
       y="211.17963"
       rx="4.2768745"
       ry="3.8931763" />
  </g>
  <g
     inkscape:groupmode="layer"
     id="layer2"
     inkscape:label="Layer 2"
     transform="translate(0,-247)"
     style="display:none;opacity:1"
     sodipodi:insensitive="true" />
  <g
     inkscape:groupmode="layer"
     id="layer3"
     inkscape:label="Layer 3"
     style="display:none"
     sodipodi:insensitive="true"
     transform="translate(0,-50)" />
</svg>
